<mxfile host="app.diagrams.net" agent="Mozilla/5.0 (Windows NT 10.0; Win64; x64) AppleWebKit/537.36 (KHTML, like Gecko) Chrome/131.0.0.0 Safari/537.36" version="24.8.6">
  <diagram name="Página-1" id="xohenxKLFOJUWTvd9guU">
    <mxGraphModel dx="1891" dy="643" grid="1" gridSize="10" guides="1" tooltips="1" connect="1" arrows="1" fold="1" page="1" pageScale="1" pageWidth="827" pageHeight="1169" math="0" shadow="0">
      <root>
        <mxCell id="0" />
        <mxCell id="1" parent="0" />
        <mxCell id="FlQ5AiQTA3cnXJCN8gwm-15" value="" style="group" vertex="1" connectable="0" parent="1">
          <mxGeometry x="40" y="410" width="315" height="230" as="geometry" />
        </mxCell>
        <mxCell id="FlQ5AiQTA3cnXJCN8gwm-12" value="" style="rounded=0;whiteSpace=wrap;html=1;" vertex="1" parent="FlQ5AiQTA3cnXJCN8gwm-15">
          <mxGeometry width="315" height="230" as="geometry" />
        </mxCell>
        <mxCell id="FlQ5AiQTA3cnXJCN8gwm-1" value="Plano de Contas" style="text;html=1;align=center;verticalAlign=middle;whiteSpace=wrap;rounded=0;fontStyle=1" vertex="1" parent="FlQ5AiQTA3cnXJCN8gwm-15">
          <mxGeometry x="5" width="130" height="30" as="geometry" />
        </mxCell>
        <mxCell id="FlQ5AiQTA3cnXJCN8gwm-5" value="Despesa" style="html=1;shadow=0;dashed=0;shape=mxgraph.bootstrap.radioButton2;labelPosition=right;verticalLabelPosition=middle;align=left;verticalAlign=middle;gradientColor=#DEDEDE;fillColor=#EDEDED;checked=0;spacing=5;checkedFill=#0085FC;checkedStroke=#ffffff;" vertex="1" parent="FlQ5AiQTA3cnXJCN8gwm-15">
          <mxGeometry x="25" y="86" width="10" height="10" as="geometry" />
        </mxCell>
        <mxCell id="FlQ5AiQTA3cnXJCN8gwm-6" value="Receita" style="html=1;shadow=0;dashed=0;shape=mxgraph.bootstrap.radioButton2;labelPosition=right;verticalLabelPosition=middle;align=left;verticalAlign=middle;gradientColor=#DEDEDE;fillColor=#EDEDED;checked=0;spacing=5;checkedFill=#0085FC;checkedStroke=#ffffff;" vertex="1" parent="FlQ5AiQTA3cnXJCN8gwm-15">
          <mxGeometry x="25" y="126" width="10" height="10" as="geometry" />
        </mxCell>
        <mxCell id="FlQ5AiQTA3cnXJCN8gwm-9" value="Registrar" style="html=1;shadow=0;dashed=0;shape=mxgraph.bootstrap.rrect;rSize=5;strokeColor=none;strokeWidth=1;fillColor=#0085FC;fontColor=#FFFFFF;whiteSpace=wrap;align=center;verticalAlign=middle;spacingLeft=0;fontStyle=0;fontSize=15;spacing=5;" vertex="1" parent="FlQ5AiQTA3cnXJCN8gwm-15">
          <mxGeometry x="20" y="160" width="80" height="40" as="geometry" />
        </mxCell>
        <mxCell id="FlQ5AiQTA3cnXJCN8gwm-10" value="Descrição" style="html=1;shadow=0;dashed=0;shape=mxgraph.bootstrap.rrect;rSize=5;fillColor=none;strokeColor=#999999;align=left;spacing=15;fontSize=14;fontColor=#6C767D;" vertex="1" parent="FlQ5AiQTA3cnXJCN8gwm-15">
          <mxGeometry x="20" y="40" width="275" height="30" as="geometry" />
        </mxCell>
        <mxCell id="FlQ5AiQTA3cnXJCN8gwm-49" style="edgeStyle=orthogonalEdgeStyle;rounded=0;orthogonalLoop=1;jettySize=auto;html=1;entryX=0.001;entryY=0.549;entryDx=0;entryDy=0;entryPerimeter=0;exitX=0;exitY=0.5;exitDx=0;exitDy=0;" edge="1" parent="1" source="FlQ5AiQTA3cnXJCN8gwm-16" target="FlQ5AiQTA3cnXJCN8gwm-12">
          <mxGeometry relative="1" as="geometry" />
        </mxCell>
        <mxCell id="FlQ5AiQTA3cnXJCN8gwm-50" value="" style="group" vertex="1" connectable="0" parent="1">
          <mxGeometry x="10" y="10" width="650" height="350" as="geometry" />
        </mxCell>
        <mxCell id="FlQ5AiQTA3cnXJCN8gwm-16" value="" style="rounded=0;whiteSpace=wrap;html=1;" vertex="1" parent="FlQ5AiQTA3cnXJCN8gwm-50">
          <mxGeometry width="650" height="350" as="geometry" />
        </mxCell>
        <mxCell id="FlQ5AiQTA3cnXJCN8gwm-17" value="Plano de Contas" style="text;html=1;align=center;verticalAlign=middle;whiteSpace=wrap;rounded=0;fontStyle=1" vertex="1" parent="FlQ5AiQTA3cnXJCN8gwm-50">
          <mxGeometry width="130" height="30" as="geometry" />
        </mxCell>
        <mxCell id="FlQ5AiQTA3cnXJCN8gwm-18" value="Criar Item de Plano de Conta" style="html=1;shadow=0;dashed=0;shape=mxgraph.bootstrap.rrect;rSize=5;strokeColor=none;strokeWidth=1;fillColor=#0085FC;fontColor=#FFFFFF;whiteSpace=wrap;align=center;verticalAlign=middle;spacingLeft=0;fontStyle=0;fontSize=15;spacing=5;" vertex="1" parent="FlQ5AiQTA3cnXJCN8gwm-50">
          <mxGeometry x="10" y="40" width="220" height="40" as="geometry" />
        </mxCell>
        <mxCell id="FlQ5AiQTA3cnXJCN8gwm-19" value="" style="shape=table;startSize=0;container=1;collapsible=0;childLayout=tableLayout;fontSize=16;" vertex="1" parent="FlQ5AiQTA3cnXJCN8gwm-50">
          <mxGeometry x="10" y="110" width="430" height="120" as="geometry" />
        </mxCell>
        <mxCell id="FlQ5AiQTA3cnXJCN8gwm-20" value="" style="shape=tableRow;horizontal=0;startSize=0;swimlaneHead=0;swimlaneBody=0;strokeColor=inherit;top=0;left=0;bottom=0;right=0;collapsible=0;dropTarget=0;fillColor=none;points=[[0,0.5],[1,0.5]];portConstraint=eastwest;fontSize=16;" vertex="1" parent="FlQ5AiQTA3cnXJCN8gwm-19">
          <mxGeometry width="430" height="40" as="geometry" />
        </mxCell>
        <mxCell id="FlQ5AiQTA3cnXJCN8gwm-21" value="ID" style="shape=partialRectangle;html=1;whiteSpace=wrap;connectable=0;strokeColor=inherit;overflow=hidden;fillColor=none;top=0;left=0;bottom=0;right=0;pointerEvents=1;fontSize=16;" vertex="1" parent="FlQ5AiQTA3cnXJCN8gwm-20">
          <mxGeometry width="143" height="40" as="geometry">
            <mxRectangle width="143" height="40" as="alternateBounds" />
          </mxGeometry>
        </mxCell>
        <mxCell id="FlQ5AiQTA3cnXJCN8gwm-22" value="Descrição" style="shape=partialRectangle;html=1;whiteSpace=wrap;connectable=0;strokeColor=inherit;overflow=hidden;fillColor=none;top=0;left=0;bottom=0;right=0;pointerEvents=1;fontSize=16;" vertex="1" parent="FlQ5AiQTA3cnXJCN8gwm-20">
          <mxGeometry x="143" width="144" height="40" as="geometry">
            <mxRectangle width="144" height="40" as="alternateBounds" />
          </mxGeometry>
        </mxCell>
        <mxCell id="FlQ5AiQTA3cnXJCN8gwm-23" value="Tipo" style="shape=partialRectangle;html=1;whiteSpace=wrap;connectable=0;strokeColor=inherit;overflow=hidden;fillColor=none;top=0;left=0;bottom=0;right=0;pointerEvents=1;fontSize=16;" vertex="1" parent="FlQ5AiQTA3cnXJCN8gwm-20">
          <mxGeometry x="287" width="143" height="40" as="geometry">
            <mxRectangle width="143" height="40" as="alternateBounds" />
          </mxGeometry>
        </mxCell>
        <mxCell id="FlQ5AiQTA3cnXJCN8gwm-24" value="" style="shape=tableRow;horizontal=0;startSize=0;swimlaneHead=0;swimlaneBody=0;strokeColor=inherit;top=0;left=0;bottom=0;right=0;collapsible=0;dropTarget=0;fillColor=none;points=[[0,0.5],[1,0.5]];portConstraint=eastwest;fontSize=16;" vertex="1" parent="FlQ5AiQTA3cnXJCN8gwm-19">
          <mxGeometry y="40" width="430" height="40" as="geometry" />
        </mxCell>
        <mxCell id="FlQ5AiQTA3cnXJCN8gwm-25" value="1" style="shape=partialRectangle;html=1;whiteSpace=wrap;connectable=0;strokeColor=inherit;overflow=hidden;fillColor=none;top=0;left=0;bottom=0;right=0;pointerEvents=1;fontSize=16;" vertex="1" parent="FlQ5AiQTA3cnXJCN8gwm-24">
          <mxGeometry width="143" height="40" as="geometry">
            <mxRectangle width="143" height="40" as="alternateBounds" />
          </mxGeometry>
        </mxCell>
        <mxCell id="FlQ5AiQTA3cnXJCN8gwm-26" value="Combustivel" style="shape=partialRectangle;html=1;whiteSpace=wrap;connectable=0;strokeColor=inherit;overflow=hidden;fillColor=none;top=0;left=0;bottom=0;right=0;pointerEvents=1;fontSize=16;" vertex="1" parent="FlQ5AiQTA3cnXJCN8gwm-24">
          <mxGeometry x="143" width="144" height="40" as="geometry">
            <mxRectangle width="144" height="40" as="alternateBounds" />
          </mxGeometry>
        </mxCell>
        <mxCell id="FlQ5AiQTA3cnXJCN8gwm-27" value="D" style="shape=partialRectangle;html=1;whiteSpace=wrap;connectable=0;strokeColor=inherit;overflow=hidden;fillColor=none;top=0;left=0;bottom=0;right=0;pointerEvents=1;fontSize=16;" vertex="1" parent="FlQ5AiQTA3cnXJCN8gwm-24">
          <mxGeometry x="287" width="143" height="40" as="geometry">
            <mxRectangle width="143" height="40" as="alternateBounds" />
          </mxGeometry>
        </mxCell>
        <mxCell id="FlQ5AiQTA3cnXJCN8gwm-28" value="" style="shape=tableRow;horizontal=0;startSize=0;swimlaneHead=0;swimlaneBody=0;strokeColor=inherit;top=0;left=0;bottom=0;right=0;collapsible=0;dropTarget=0;fillColor=none;points=[[0,0.5],[1,0.5]];portConstraint=eastwest;fontSize=16;" vertex="1" parent="FlQ5AiQTA3cnXJCN8gwm-19">
          <mxGeometry y="80" width="430" height="40" as="geometry" />
        </mxCell>
        <mxCell id="FlQ5AiQTA3cnXJCN8gwm-29" value="2" style="shape=partialRectangle;html=1;whiteSpace=wrap;connectable=0;strokeColor=inherit;overflow=hidden;fillColor=none;top=0;left=0;bottom=0;right=0;pointerEvents=1;fontSize=16;" vertex="1" parent="FlQ5AiQTA3cnXJCN8gwm-28">
          <mxGeometry width="143" height="40" as="geometry">
            <mxRectangle width="143" height="40" as="alternateBounds" />
          </mxGeometry>
        </mxCell>
        <mxCell id="FlQ5AiQTA3cnXJCN8gwm-30" value="Salário" style="shape=partialRectangle;html=1;whiteSpace=wrap;connectable=0;strokeColor=inherit;overflow=hidden;fillColor=none;top=0;left=0;bottom=0;right=0;pointerEvents=1;fontSize=16;" vertex="1" parent="FlQ5AiQTA3cnXJCN8gwm-28">
          <mxGeometry x="143" width="144" height="40" as="geometry">
            <mxRectangle width="144" height="40" as="alternateBounds" />
          </mxGeometry>
        </mxCell>
        <mxCell id="FlQ5AiQTA3cnXJCN8gwm-31" value="R" style="shape=partialRectangle;html=1;whiteSpace=wrap;connectable=0;strokeColor=inherit;overflow=hidden;fillColor=none;top=0;left=0;bottom=0;right=0;pointerEvents=1;fontSize=16;" vertex="1" parent="FlQ5AiQTA3cnXJCN8gwm-28">
          <mxGeometry x="287" width="143" height="40" as="geometry">
            <mxRectangle width="143" height="40" as="alternateBounds" />
          </mxGeometry>
        </mxCell>
        <mxCell id="FlQ5AiQTA3cnXJCN8gwm-32" value="" style="shape=table;startSize=0;container=1;collapsible=0;childLayout=tableLayout;fontSize=16;" vertex="1" parent="FlQ5AiQTA3cnXJCN8gwm-50">
          <mxGeometry x="440" y="110" width="200" height="120" as="geometry" />
        </mxCell>
        <mxCell id="FlQ5AiQTA3cnXJCN8gwm-33" value="" style="shape=tableRow;horizontal=0;startSize=0;swimlaneHead=0;swimlaneBody=0;strokeColor=inherit;top=0;left=0;bottom=0;right=0;collapsible=0;dropTarget=0;fillColor=none;points=[[0,0.5],[1,0.5]];portConstraint=eastwest;fontSize=16;" vertex="1" parent="FlQ5AiQTA3cnXJCN8gwm-32">
          <mxGeometry width="200" height="40" as="geometry" />
        </mxCell>
        <mxCell id="FlQ5AiQTA3cnXJCN8gwm-34" value="#" style="shape=partialRectangle;html=1;whiteSpace=wrap;connectable=0;strokeColor=inherit;overflow=hidden;fillColor=none;top=0;left=0;bottom=0;right=0;pointerEvents=1;fontSize=16;" vertex="1" parent="FlQ5AiQTA3cnXJCN8gwm-33">
          <mxGeometry width="67" height="40" as="geometry">
            <mxRectangle width="67" height="40" as="alternateBounds" />
          </mxGeometry>
        </mxCell>
        <mxCell id="FlQ5AiQTA3cnXJCN8gwm-35" value="#" style="shape=partialRectangle;html=1;whiteSpace=wrap;connectable=0;strokeColor=inherit;overflow=hidden;fillColor=none;top=0;left=0;bottom=0;right=0;pointerEvents=1;fontSize=16;" vertex="1" parent="FlQ5AiQTA3cnXJCN8gwm-33">
          <mxGeometry x="67" width="66" height="40" as="geometry">
            <mxRectangle width="66" height="40" as="alternateBounds" />
          </mxGeometry>
        </mxCell>
        <mxCell id="FlQ5AiQTA3cnXJCN8gwm-36" value="" style="shape=partialRectangle;html=1;whiteSpace=wrap;connectable=0;strokeColor=inherit;overflow=hidden;fillColor=none;top=0;left=0;bottom=0;right=0;pointerEvents=1;fontSize=16;" vertex="1" parent="FlQ5AiQTA3cnXJCN8gwm-33">
          <mxGeometry x="133" width="67" height="40" as="geometry">
            <mxRectangle width="67" height="40" as="alternateBounds" />
          </mxGeometry>
        </mxCell>
        <mxCell id="FlQ5AiQTA3cnXJCN8gwm-37" value="" style="shape=tableRow;horizontal=0;startSize=0;swimlaneHead=0;swimlaneBody=0;strokeColor=inherit;top=0;left=0;bottom=0;right=0;collapsible=0;dropTarget=0;fillColor=none;points=[[0,0.5],[1,0.5]];portConstraint=eastwest;fontSize=16;" vertex="1" parent="FlQ5AiQTA3cnXJCN8gwm-32">
          <mxGeometry y="40" width="200" height="40" as="geometry" />
        </mxCell>
        <mxCell id="FlQ5AiQTA3cnXJCN8gwm-38" value="" style="shape=partialRectangle;html=1;whiteSpace=wrap;connectable=0;strokeColor=inherit;overflow=hidden;fillColor=none;top=0;left=0;bottom=0;right=0;pointerEvents=1;fontSize=16;" vertex="1" parent="FlQ5AiQTA3cnXJCN8gwm-37">
          <mxGeometry width="67" height="40" as="geometry">
            <mxRectangle width="67" height="40" as="alternateBounds" />
          </mxGeometry>
        </mxCell>
        <mxCell id="FlQ5AiQTA3cnXJCN8gwm-39" value="" style="shape=partialRectangle;html=1;whiteSpace=wrap;connectable=0;strokeColor=inherit;overflow=hidden;fillColor=none;top=0;left=0;bottom=0;right=0;pointerEvents=1;fontSize=16;" vertex="1" parent="FlQ5AiQTA3cnXJCN8gwm-37">
          <mxGeometry x="67" width="66" height="40" as="geometry">
            <mxRectangle width="66" height="40" as="alternateBounds" />
          </mxGeometry>
        </mxCell>
        <mxCell id="FlQ5AiQTA3cnXJCN8gwm-40" value="" style="shape=partialRectangle;html=1;whiteSpace=wrap;connectable=0;strokeColor=inherit;overflow=hidden;fillColor=none;top=0;left=0;bottom=0;right=0;pointerEvents=1;fontSize=16;" vertex="1" parent="FlQ5AiQTA3cnXJCN8gwm-37">
          <mxGeometry x="133" width="67" height="40" as="geometry">
            <mxRectangle width="67" height="40" as="alternateBounds" />
          </mxGeometry>
        </mxCell>
        <mxCell id="FlQ5AiQTA3cnXJCN8gwm-41" value="" style="shape=tableRow;horizontal=0;startSize=0;swimlaneHead=0;swimlaneBody=0;strokeColor=inherit;top=0;left=0;bottom=0;right=0;collapsible=0;dropTarget=0;fillColor=none;points=[[0,0.5],[1,0.5]];portConstraint=eastwest;fontSize=16;" vertex="1" parent="FlQ5AiQTA3cnXJCN8gwm-32">
          <mxGeometry y="80" width="200" height="40" as="geometry" />
        </mxCell>
        <mxCell id="FlQ5AiQTA3cnXJCN8gwm-42" value="" style="shape=partialRectangle;html=1;whiteSpace=wrap;connectable=0;strokeColor=inherit;overflow=hidden;fillColor=none;top=0;left=0;bottom=0;right=0;pointerEvents=1;fontSize=16;" vertex="1" parent="FlQ5AiQTA3cnXJCN8gwm-41">
          <mxGeometry width="67" height="40" as="geometry">
            <mxRectangle width="67" height="40" as="alternateBounds" />
          </mxGeometry>
        </mxCell>
        <mxCell id="FlQ5AiQTA3cnXJCN8gwm-43" value="" style="shape=partialRectangle;html=1;whiteSpace=wrap;connectable=0;strokeColor=inherit;overflow=hidden;fillColor=none;top=0;left=0;bottom=0;right=0;pointerEvents=1;fontSize=16;" vertex="1" parent="FlQ5AiQTA3cnXJCN8gwm-41">
          <mxGeometry x="67" width="66" height="40" as="geometry">
            <mxRectangle width="66" height="40" as="alternateBounds" />
          </mxGeometry>
        </mxCell>
        <mxCell id="FlQ5AiQTA3cnXJCN8gwm-44" value="" style="shape=partialRectangle;html=1;whiteSpace=wrap;connectable=0;strokeColor=inherit;overflow=hidden;fillColor=none;top=0;left=0;bottom=0;right=0;pointerEvents=1;fontSize=16;" vertex="1" parent="FlQ5AiQTA3cnXJCN8gwm-41">
          <mxGeometry x="133" width="67" height="40" as="geometry">
            <mxRectangle width="67" height="40" as="alternateBounds" />
          </mxGeometry>
        </mxCell>
        <mxCell id="FlQ5AiQTA3cnXJCN8gwm-45" value="Editar" style="html=1;shadow=0;dashed=0;shape=mxgraph.bootstrap.rrect;rSize=5;strokeColor=#d79b00;strokeWidth=1;fillColor=#ffe6cc;whiteSpace=wrap;align=center;verticalAlign=middle;spacingLeft=0;fontStyle=0;fontSize=16;spacing=5;" vertex="1" parent="FlQ5AiQTA3cnXJCN8gwm-50">
          <mxGeometry x="450" y="156.5" width="50" height="25" as="geometry" />
        </mxCell>
        <mxCell id="FlQ5AiQTA3cnXJCN8gwm-46" value="Editar" style="html=1;shadow=0;dashed=0;shape=mxgraph.bootstrap.rrect;rSize=5;strokeColor=#d79b00;strokeWidth=1;fillColor=#ffe6cc;whiteSpace=wrap;align=center;verticalAlign=middle;spacingLeft=0;fontStyle=0;fontSize=16;spacing=5;" vertex="1" parent="FlQ5AiQTA3cnXJCN8gwm-50">
          <mxGeometry x="450" y="197" width="50" height="25" as="geometry" />
        </mxCell>
        <mxCell id="FlQ5AiQTA3cnXJCN8gwm-47" value="Excluir" style="html=1;shadow=0;dashed=0;shape=mxgraph.bootstrap.rrect;rSize=5;strokeColor=#b85450;strokeWidth=1;fillColor=#f8cecc;whiteSpace=wrap;align=center;verticalAlign=middle;spacingLeft=0;fontStyle=0;fontSize=16;spacing=5;" vertex="1" parent="FlQ5AiQTA3cnXJCN8gwm-50">
          <mxGeometry x="515" y="156.5" width="50" height="25" as="geometry" />
        </mxCell>
        <mxCell id="FlQ5AiQTA3cnXJCN8gwm-48" value="Excluir" style="html=1;shadow=0;dashed=0;shape=mxgraph.bootstrap.rrect;rSize=5;strokeColor=#b85450;strokeWidth=1;fillColor=#f8cecc;whiteSpace=wrap;align=center;verticalAlign=middle;spacingLeft=0;fontStyle=0;fontSize=16;spacing=5;" vertex="1" parent="FlQ5AiQTA3cnXJCN8gwm-50">
          <mxGeometry x="515" y="197" width="50" height="25" as="geometry" />
        </mxCell>
      </root>
    </mxGraphModel>
  </diagram>
</mxfile>
